<?xml version="1.0" standalone="no"?>
<!DOCTYPE svg PUBLIC "-//W3C//DTD SVG 20010904//EN"
 "http://www.w3.org/TR/2001/REC-SVG-20010904/DTD/svg10.dtd">
<svg version="1.0" xmlns="http://www.w3.org/2000/svg"
 width="2048.000000pt" height="2048.000000pt" viewBox="0 0 2048.000000 2048.000000"
 preserveAspectRatio="xMidYMid meet">
<metadata>
Created by potrace 1.14, written by Peter Selinger 2001-2017
</metadata>
<g transform="translate(0.000000,2048.000000) scale(0.100000,-0.100000)"
fill="#000000" stroke="none">
<path d="M1666 19594 c-395 -85 -698 -391 -780 -787 -15 -69 -16 -869 -16
-8567 0 -7698 1 -8498 16 -8567 83 -403 384 -701 795 -790 81 -17 426 -18
8559 -18 8133 0 8478 1 8559 18 415 90 708 383 798 798 17 81 18 426 18 8559
0 8133 -1 8478 -18 8559 -89 411 -387 712 -790 795 -69 15 -867 16 -8574 15
-7447 -1 -8506 -2 -8567 -15z m5654 -4519 c1404 -158 2651 -899 3398 -2021 93
-139 108 -167 96 -171 -5 -2 -470 -269 -1034 -593 l-1024 -588 -49 80 c-311
518 -886 870 -1577 964 -153 21 -512 24 -680 5 -606 -67 -1089 -294 -1476
-694 -341 -351 -549 -772 -633 -1277 -31 -184 -41 -322 -41 -540 0 -295 28
-532 90 -776 205 -796 807 -1421 1583 -1643 260 -74 499 -105 812 -105 312 1
527 33 795 119 486 156 905 482 1131 879 24 42 46 75 50 74 25 -10 2059 -1194
2059 -1199 0 -13 -160 -256 -243 -367 -308 -415 -659 -748 -1092 -1037 -660
-440 -1351 -689 -2167 -782 -194 -22 -840 -25 -1048 -5 -836 81 -1536 313
-2169 719 -617 397 -1197 1009 -1562 1648 -279 488 -469 1045 -558 1635 -43
289 -55 468 -55 840 0 372 12 551 55 840 89 590 279 1147 558 1635 365 639
945 1251 1562 1648 631 405 1377 652 2164 717 72 5 150 12 175 14 120 10 743
-3 880 -19z m11043 -1322 c-111 -632 -203 -1149 -203 -1150 0 -2 -752 -4
-1672 -5 l-1672 -3 -132 -750 c-73 -412 -133 -753 -134 -757 0 -5 737 -8 1638
-8 l1638 0 -203 -1147 c-111 -632 -203 -1149 -203 -1150 0 -2 -737 -3 -1638
-3 l-1638 0 -278 -1577 c-153 -868 -280 -1588 -283 -1600 l-5 -23 -1195 0
-1195 0 6 27 c10 49 1636 9274 1636 9284 0 5 1111 9 2868 9 l2868 0 -203
-1147z"/>
</g>
</svg>
